<?xml version="1.0" standalone="no"?>
<!DOCTYPE svg PUBLIC "-//W3C//DTD SVG 20010904//EN"
 "http://www.w3.org/TR/2001/REC-SVG-20010904/DTD/svg10.dtd">
<svg version="1.0" xmlns="http://www.w3.org/2000/svg"
 width="294.000000pt" height="294.000000pt" viewBox="0 0 294.000000 294.000000"
 preserveAspectRatio="xMidYMid meet">

<g transform="translate(0.000000,294.000000) scale(0.100000,-0.100000)"
fill="#000000" stroke="none">
<path d="M1838 2727 c-135 -46 -249 -151 -320 -295 -36 -71 -42 -93 -46 -164
l-5 -81 64 7 c214 22 386 223 408 477 8 93 8 93 -101 56z"/>
<path d="M1802 2150 c-28 -6 -107 -30 -174 -55 -67 -25 -131 -45 -141 -45 -11
0 -81 21 -156 47 -217 74 -339 70 -516 -17 -230 -112 -357 -313 -387 -610 -10
-101 -9 -135 5 -237 61 -434 307 -888 544 -1005 61 -30 76 -33 153 -32 74 1
103 7 225 48 168 58 201 58 345 0 87 -35 103 -38 195 -38 91 -1 106 2 159 28
74 36 175 131 250 236 64 88 170 291 201 382 17 53 18 58 2 82 -10 14 -46 44
-81 66 -158 100 -235 245 -223 420 11 157 87 274 257 393 l23 16 -32 49 c-75
117 -219 220 -358 256 -77 20 -222 28 -291 16z"/>
</g>
</svg>
